<svg id="svg" version="1.1" xmlns="http://www.w3.org/2000/svg" xmlns:xlink="http://www.w3.org/1999/xlink" width="400" height="222.22222222222223" viewBox="0, 0, 400,222.22222222222223"><g id="svgg"><path id="path0" d="M253.193 66.034 C 253.087 66.199,253.000 68.253,253.000 70.599 C 253.000 73.667,252.924 74.942,252.728 75.138 C 252.526 75.340,250.546 75.424,245.061 75.462 C 240.994 75.490,237.592 75.523,237.500 75.535 C 237.192 75.573,237.301 86.175,237.611 86.376 C 237.764 86.475,241.209 86.556,245.267 86.556 C 250.023 86.556,252.726 86.637,252.873 86.784 C 253.021 86.932,253.052 88.043,252.962 89.935 C 252.793 93.457,253.640 93.081,246.038 93.009 C 240.264 92.954,240.185 92.960,240.027 93.421 C 239.689 94.409,239.861 103.332,240.222 103.560 C 240.410 103.679,243.128 103.774,246.444 103.778 C 249.683 103.782,252.449 103.858,252.591 103.948 C 252.937 104.168,253.219 109.543,252.909 110.000 C 252.716 110.285,251.610 110.333,245.270 110.333 L 237.857 110.333 234.190 106.889 C 232.173 104.994,230.047 103.030,229.465 102.524 L 228.408 101.603 228.933 100.635 C 229.222 100.102,229.750 99.217,230.105 98.667 C 230.461 98.117,231.435 96.329,232.269 94.694 L 233.785 91.721 233.726 85.707 L 233.667 79.693 231.312 79.752 C 227.570 79.845,227.480 79.809,227.052 78.038 C 226.635 76.316,226.453 75.348,226.312 74.111 C 226.256 73.622,226.066 72.622,225.890 71.889 C 225.714 71.156,225.427 69.724,225.252 68.708 C 225.078 67.692,224.869 66.795,224.788 66.714 C 224.587 66.513,218.328 66.654,217.222 66.884 C 216.733 66.986,215.801 67.077,215.151 67.086 C 213.576 67.110,213.555 67.135,213.905 68.610 C 214.072 69.313,214.403 70.839,214.642 72.000 C 214.880 73.161,215.333 75.305,215.649 76.765 C 216.351 80.012,216.657 79.770,211.848 79.774 L 208.030 79.778 207.957 85.056 C 207.918 87.958,207.964 90.507,208.060 90.719 C 208.219 91.071,208.830 91.110,215.062 91.163 C 221.738 91.221,221.888 91.232,221.846 91.667 C 221.799 92.151,219.528 95.639,217.703 98.029 C 217.072 98.856,216.237 99.962,215.848 100.488 C 215.459 101.014,214.959 101.645,214.737 101.889 C 214.515 102.134,214.037 102.734,213.675 103.222 C 212.426 104.910,207.514 110.593,204.833 113.452 C 203.326 115.060,203.277 115.425,204.389 116.725 C 204.847 117.261,206.299 119.118,207.616 120.850 C 208.933 122.583,210.141 124.000,210.302 124.000 C 210.463 124.000,211.705 122.850,213.064 121.444 C 214.422 120.039,215.675 118.889,215.849 118.889 C 216.344 118.889,216.411 121.089,216.352 135.333 C 216.323 142.483,216.342 148.458,216.395 148.611 C 216.557 149.076,226.352 149.005,226.532 148.537 C 226.606 148.344,226.667 140.750,226.667 131.662 C 226.667 119.973,226.738 115.094,226.909 114.988 C 227.203 114.806,228.734 116.241,229.471 117.389 C 230.315 118.705,231.109 118.198,234.070 114.457 C 237.312 110.359,237.310 110.357,237.385 116.389 L 237.444 121.222 245.100 121.281 C 249.812 121.317,252.807 121.423,252.890 121.558 C 252.965 121.678,253.014 127.783,253.000 135.126 C 252.976 147.602,253.000 148.488,253.362 148.682 C 253.899 148.969,263.028 148.949,263.570 148.659 C 263.988 148.435,264.000 148.048,264.000 134.881 L 264.000 121.333 269.674 121.333 C 274.011 121.333,275.372 121.399,275.454 121.611 C 275.620 122.045,274.987 127.305,274.604 128.661 C 274.113 130.406,272.812 131.328,270.837 131.332 C 269.736 131.334,267.126 131.862,267.039 132.100 C 266.954 132.329,268.078 136.147,268.874 138.333 C 269.431 139.864,270.000 141.772,270.000 142.109 C 270.000 142.879,271.496 142.911,275.889 142.234 C 282.790 141.170,285.283 138.173,285.785 130.333 C 285.887 128.744,286.098 125.544,286.253 123.222 C 286.409 120.900,286.507 118.103,286.472 117.006 C 286.437 115.909,286.531 114.251,286.682 113.322 C 286.833 112.393,286.889 111.365,286.807 111.039 L 286.658 110.444 275.607 110.441 C 269.529 110.439,264.428 110.356,264.271 110.257 C 264.058 110.122,264.002 109.309,264.049 106.983 L 264.111 103.889 273.508 103.778 C 281.537 103.683,282.936 103.618,283.116 103.333 C 283.332 102.992,283.425 93.832,283.219 93.293 C 283.125 93.048,281.455 92.999,274.052 93.024 C 269.073 93.041,264.775 93.006,264.500 92.948 C 263.905 92.820,263.689 86.703,264.278 86.634 C 264.431 86.616,269.634 86.591,275.841 86.578 C 285.615 86.559,287.156 86.511,287.338 86.222 C 287.670 85.697,287.618 75.842,287.282 75.635 C 287.131 75.542,281.929 75.454,275.722 75.440 C 268.091 75.423,264.360 75.338,264.201 75.179 C 264.050 75.028,263.971 73.468,263.983 70.860 C 263.993 68.615,263.926 66.668,263.834 66.533 C 263.728 66.377,262.047 66.233,259.222 66.137 C 256.778 66.054,254.465 65.930,254.082 65.861 C 253.625 65.778,253.320 65.838,253.193 66.034 M306.958 68.722 C 306.715 69.097,306.694 107.118,306.936 107.611 C 307.114 107.975,307.970 108.000,320.204 108.000 L 333.280 108.000 333.439 110.118 C 333.671 113.207,335.578 112.877,317.141 112.943 L 301.222 113.000 301.162 117.617 C 301.124 120.549,301.188 122.395,301.337 122.673 C 301.566 123.101,301.855 123.111,313.693 123.111 C 323.108 123.111,325.795 123.171,325.725 123.381 C 325.632 123.661,322.838 125.711,321.667 126.360 C 321.300 126.563,320.950 126.803,320.889 126.893 C 320.613 127.300,310.514 132.444,309.990 132.444 C 309.870 132.444,309.598 132.539,309.386 132.655 C 308.049 133.386,302.536 135.619,300.556 136.232 C 297.502 137.177,296.772 137.740,297.526 138.567 C 297.632 138.683,298.317 139.928,299.050 141.333 C 299.782 142.739,300.596 144.267,300.857 144.729 C 301.119 145.191,301.333 145.695,301.333 145.848 C 301.333 146.002,301.608 146.451,301.944 146.847 L 302.556 147.566 304.667 146.657 C 309.655 144.511,315.426 141.630,318.417 139.795 C 319.428 139.174,320.285 138.667,320.323 138.667 C 320.717 138.667,327.211 134.118,329.365 132.333 C 332.000 130.149,332.782 129.562,333.056 129.559 C 333.396 129.555,333.393 129.459,333.428 140.162 C 333.447 145.718,333.537 148.737,333.688 148.888 C 333.839 149.039,335.733 149.099,339.126 149.060 L 344.333 149.000 344.391 138.944 C 344.457 127.440,344.309 128.081,346.442 130.056 C 347.135 130.697,348.275 131.672,348.975 132.222 C 349.675 132.772,350.517 133.451,350.846 133.731 C 351.175 134.011,351.794 134.457,352.222 134.723 C 352.650 134.988,353.112 135.314,353.248 135.446 C 353.385 135.579,354.185 136.124,355.026 136.657 C 355.867 137.190,357.206 138.046,358.000 138.558 C 358.794 139.071,360.244 139.919,361.222 140.443 C 362.200 140.967,363.100 141.468,363.222 141.556 C 364.580 142.538,373.770 147.032,374.870 147.252 C 375.459 147.370,376.616 145.748,377.586 143.444 C 377.741 143.078,378.035 142.528,378.241 142.222 C 378.447 141.917,379.084 140.736,379.658 139.599 C 380.837 137.262,380.819 137.150,379.184 136.702 C 378.594 136.540,377.911 136.319,377.667 136.211 C 377.422 136.104,376.572 135.796,375.778 135.528 C 372.607 134.458,371.554 134.072,371.410 133.928 C 371.327 133.846,371.090 133.778,370.883 133.778 C 370.675 133.778,369.817 133.473,368.975 133.101 C 368.133 132.728,367.244 132.342,367.000 132.242 C 365.628 131.680,358.897 128.290,358.333 127.877 C 357.967 127.609,357.179 127.122,356.584 126.795 C 355.227 126.050,352.000 123.607,352.000 123.325 C 352.000 123.196,356.743 123.093,364.278 123.057 L 376.556 123.000 376.556 118.000 L 376.556 113.000 360.778 112.889 C 352.100 112.828,344.875 112.697,344.722 112.598 C 344.531 112.474,344.444 111.732,344.444 110.209 L 344.444 108.000 357.511 108.000 C 367.378 108.000,370.643 107.935,370.844 107.733 C 371.231 107.347,371.231 69.098,370.844 68.711 C 370.447 68.313,307.215 68.324,306.958 68.722 M333.085 78.569 C 333.477 78.997,333.574 83.061,333.200 83.435 C 332.682 83.953,318.648 83.950,318.130 83.432 C 317.811 83.113,317.803 79.770,318.119 78.733 C 318.255 78.286,332.680 78.128,333.085 78.569 M359.657 78.659 C 360.132 79.053,360.078 82.900,359.590 83.388 C 359.257 83.721,346.487 83.916,345.289 83.607 L 344.556 83.417 344.492 81.101 C 344.443 79.324,344.500 78.732,344.736 78.559 C 345.272 78.167,359.177 78.261,359.657 78.659 M332.467 93.299 L 333.267 93.333 333.411 95.366 C 333.615 98.237,334.310 98.000,325.667 98.000 C 317.004 98.000,317.683 98.227,317.935 95.410 L 318.111 93.444 319.556 93.333 C 320.836 93.235,330.380 93.209,332.467 93.299 M359.795 93.556 C 360.116 94.037,359.954 97.187,359.584 97.633 C 359.218 98.073,345.677 98.199,344.874 97.770 C 344.265 97.444,344.217 93.410,344.820 93.294 C 346.267 93.017,359.590 93.250,359.795 93.556 " stroke="none" fill="#4e4e4e" fill-rule="evenodd"></path><path id="path2" d="M124.778 21.786 C 121.459 22.067,115.245 22.507,114.889 22.485 C 114.706 22.474,113.406 22.562,112.000 22.680 C 110.594 22.799,108.303 22.945,106.909 23.006 C 105.514 23.067,104.264 23.202,104.131 23.307 C 103.895 23.493,103.290 23.594,100.111 23.981 C 99.256 24.085,97.606 24.393,96.444 24.666 C 94.626 25.093,93.326 25.470,88.667 26.922 C 88.239 27.056,87.289 27.446,86.556 27.791 C 85.822 28.135,84.672 28.669,84.000 28.977 C 83.328 29.285,82.278 29.845,81.667 30.222 C 81.056 30.599,80.151 31.099,79.657 31.332 C 79.163 31.566,78.471 32.006,78.118 32.309 C 77.765 32.612,76.862 33.219,76.111 33.658 C 75.360 34.098,74.252 34.910,73.650 35.463 C 73.048 36.017,72.306 36.607,72.000 36.775 C 71.314 37.153,67.464 41.090,66.339 42.564 C 65.884 43.160,65.071 44.163,64.533 44.792 C 63.996 45.422,63.556 46.006,63.556 46.090 C 63.556 46.174,62.870 47.263,62.032 48.510 C 61.194 49.757,60.184 51.378,59.787 52.111 C 59.391 52.844,58.994 53.494,58.907 53.556 C 58.819 53.617,58.522 54.167,58.247 54.778 C 57.971 55.389,57.633 56.089,57.494 56.333 C 56.717 57.705,55.556 60.279,55.556 60.630 C 55.556 60.854,55.487 61.106,55.403 61.189 C 55.319 61.273,55.129 61.665,54.981 62.060 C 53.958 64.774,53.109 66.920,52.718 67.778 C 52.467 68.328,52.089 69.478,51.877 70.333 C 51.665 71.189,51.313 72.539,51.095 73.333 C 50.877 74.128,50.579 75.278,50.434 75.889 C 50.288 76.500,49.995 77.600,49.782 78.333 C 49.568 79.067,49.273 80.817,49.126 82.222 C 48.978 83.628,48.769 85.128,48.662 85.556 C 48.152 87.578,48.311 100.377,48.891 104.000 C 49.018 104.794,49.214 106.394,49.327 107.556 C 49.440 108.717,49.680 110.217,49.860 110.889 C 50.039 111.561,50.243 112.711,50.313 113.444 C 50.382 114.178,50.553 115.178,50.693 115.667 C 51.066 116.976,50.913 119.556,50.463 119.556 C 50.362 119.556,50.154 119.081,50.000 118.500 C 49.580 116.919,48.693 114.255,48.364 113.588 C 48.205 113.265,47.949 112.400,47.797 111.667 C 47.335 109.449,47.051 108.345,46.879 108.111 C 46.790 107.989,46.661 107.489,46.593 107.000 C 46.442 105.907,46.083 104.000,45.779 102.667 C 45.653 102.117,45.460 100.867,45.350 99.889 C 45.240 98.911,44.982 96.961,44.778 95.556 C 44.200 91.572,44.260 80.720,44.878 77.556 C 45.128 76.273,45.333 74.885,45.333 74.471 C 45.333 74.057,45.441 73.307,45.573 72.804 C 45.705 72.300,45.901 71.539,46.008 71.111 C 46.115 70.683,46.465 69.333,46.786 68.111 C 47.107 66.889,47.505 65.289,47.671 64.556 C 47.980 63.191,48.310 62.301,49.245 60.312 C 49.538 59.689,49.778 59.109,49.778 59.023 C 49.778 58.937,50.378 57.610,51.111 56.075 C 51.844 54.539,52.451 53.169,52.460 53.030 C 52.469 52.892,52.865 52.178,53.341 51.444 C 53.817 50.711,54.575 49.475,55.025 48.698 C 55.475 47.921,56.203 46.853,56.644 46.324 C 57.084 45.796,57.718 44.921,58.052 44.380 C 59.009 42.833,63.775 37.395,66.649 34.575 C 68.924 32.341,68.960 31.958,66.856 32.335 C 66.080 32.474,65.294 32.649,65.111 32.722 C 64.671 32.899,62.123 33.552,61.000 33.777 C 59.756 34.026,58.969 34.293,57.491 34.969 C 56.786 35.292,56.087 35.556,55.938 35.556 C 55.788 35.556,54.616 36.091,53.333 36.746 C 52.050 37.400,50.750 38.015,50.444 38.111 C 50.139 38.207,49.294 38.671,48.567 39.143 C 47.840 39.614,47.177 40.000,47.094 40.000 C 46.827 40.000,44.374 41.541,43.788 42.076 C 43.477 42.361,42.772 42.856,42.222 43.176 C 41.672 43.497,40.789 44.155,40.260 44.639 C 39.731 45.123,38.881 45.802,38.371 46.148 C 37.862 46.494,36.727 47.477,35.851 48.333 C 34.974 49.189,33.974 50.146,33.628 50.461 C 31.731 52.188,27.561 57.087,26.178 59.214 C 25.704 59.943,25.234 60.593,25.135 60.659 C 24.853 60.843,23.111 63.791,23.111 64.083 C 23.111 64.226,22.833 64.691,22.494 65.116 C 22.155 65.541,21.720 66.239,21.528 66.667 C 21.336 67.094,20.622 68.594,19.942 70.000 C 19.261 71.406,18.634 72.806,18.548 73.111 C 18.463 73.417,18.148 74.208,17.850 74.869 C 17.551 75.530,17.103 76.730,16.854 77.535 C 16.604 78.341,16.152 79.787,15.848 80.748 C 15.544 81.709,15.153 83.059,14.978 83.748 C 14.804 84.437,14.573 85.200,14.465 85.444 C 14.357 85.689,14.154 86.489,14.014 87.222 C 13.874 87.956,13.664 88.982,13.546 89.503 C 13.429 90.024,13.333 90.743,13.333 91.100 C 13.333 91.457,13.230 92.022,13.103 92.355 C 12.319 94.417,14.321 97.856,17.915 100.622 C 21.246 103.185,24.054 104.615,28.778 106.150 C 30.941 106.853,31.778 107.183,31.778 107.333 C 31.778 107.526,29.294 108.376,27.889 108.663 C 27.156 108.814,26.256 109.051,25.889 109.190 C 24.934 109.554,16.628 109.511,14.051 109.129 C 11.546 108.757,11.624 108.683,12.076 110.982 C 12.279 112.014,12.448 113.290,12.452 113.818 C 12.457 114.346,12.606 115.428,12.784 116.222 C 12.963 117.017,13.259 118.867,13.442 120.333 C 13.626 121.800,13.975 123.750,14.218 124.667 C 14.462 125.583,14.813 127.083,15.000 128.000 C 15.320 129.573,16.122 133.291,16.380 134.392 C 16.445 134.669,16.586 134.950,16.693 135.016 C 16.801 135.083,16.889 135.313,16.889 135.528 C 16.889 137.351,19.777 143.583,21.653 145.807 C 22.027 146.250,22.733 147.115,23.222 147.728 C 23.711 148.341,24.389 149.010,24.728 149.215 C 25.067 149.420,25.706 149.977,26.146 150.454 C 26.587 150.930,27.508 151.698,28.192 152.160 C 28.877 152.622,29.634 153.176,29.874 153.391 C 30.401 153.863,36.025 156.644,37.889 157.354 C 38.622 157.633,39.522 158.022,39.889 158.218 C 40.498 158.543,41.159 158.763,45.222 159.995 C 45.956 160.217,47.156 160.522,47.889 160.673 C 48.622 160.823,49.858 161.134,50.635 161.362 C 51.411 161.591,52.236 161.778,52.468 161.778 C 53.885 161.778,50.968 163.184,48.222 163.824 C 47.183 164.067,45.933 164.363,45.444 164.482 C 44.956 164.601,43.656 164.780,42.556 164.878 C 41.456 164.977,39.856 165.175,39.000 165.317 C 38.144 165.459,36.918 165.607,36.273 165.644 C 35.629 165.682,35.036 165.779,34.955 165.860 C 34.510 166.305,45.474 176.404,47.111 177.056 C 47.294 177.129,47.905 177.597,48.468 178.095 C 49.030 178.593,50.023 179.285,50.674 179.634 C 51.325 179.982,52.254 180.532,52.739 180.856 C 53.865 181.609,54.061 181.730,55.667 182.667 C 56.400 183.094,57.200 183.566,57.444 183.716 C 57.689 183.865,58.524 184.290,59.300 184.661 C 60.076 185.031,61.009 185.547,61.373 185.806 C 62.239 186.423,64.585 187.556,64.996 187.556 C 65.173 187.556,65.782 187.815,66.350 188.132 C 66.918 188.449,68.246 189.007,69.302 189.372 C 70.358 189.737,71.522 190.173,71.889 190.340 C 73.085 190.887,74.992 191.555,75.355 191.555 C 75.550 191.556,76.016 191.709,76.392 191.896 C 76.767 192.083,78.057 192.428,79.259 192.663 C 80.461 192.897,81.794 193.201,82.222 193.338 C 83.629 193.789,85.873 194.222,86.802 194.222 C 87.305 194.222,88.705 194.415,89.914 194.650 C 93.750 195.397,101.817 195.607,107.889 195.117 C 109.356 194.999,112.556 194.741,115.000 194.545 C 117.444 194.348,120.294 194.001,121.333 193.774 C 122.372 193.546,124.172 193.246,125.333 193.106 C 126.494 192.967,128.044 192.668,128.778 192.442 C 136.269 190.139,138.569 189.352,139.444 188.795 C 139.689 188.639,140.246 188.395,140.682 188.252 C 141.118 188.109,142.665 187.394,144.119 186.663 C 145.573 185.932,146.872 185.333,147.006 185.333 C 147.140 185.333,147.463 185.135,147.723 184.892 C 147.984 184.649,148.828 184.134,149.599 183.746 C 151.048 183.018,156.829 179.240,157.222 178.764 C 157.344 178.616,157.994 178.117,158.667 177.655 C 160.719 176.244,167.349 170.203,168.026 169.127 C 168.224 168.813,168.956 167.956,169.652 167.222 C 170.348 166.489,171.177 165.489,171.493 165.000 C 171.810 164.511,172.453 163.672,172.922 163.136 C 173.392 162.600,174.074 161.700,174.438 161.136 C 174.802 160.572,175.180 160.011,175.279 159.889 C 175.604 159.486,176.952 157.242,177.567 156.081 C 177.900 155.453,178.433 154.555,178.753 154.085 C 179.072 153.615,179.333 153.140,179.333 153.031 C 179.333 152.921,179.845 151.819,180.471 150.582 C 181.096 149.345,181.796 147.794,182.025 147.135 C 182.254 146.476,182.533 145.826,182.645 145.691 C 182.863 145.426,183.703 143.203,183.997 142.111 C 184.096 141.744,184.447 140.744,184.777 139.889 C 185.107 139.033,185.509 137.833,185.670 137.222 C 185.831 136.611,186.174 135.531,186.432 134.823 C 186.689 134.114,187.150 132.278,187.456 130.742 C 187.762 129.206,188.099 127.785,188.207 127.585 C 188.314 127.384,188.455 126.421,188.520 125.444 C 188.586 124.466,188.738 122.917,188.858 122.000 C 188.979 121.083,189.188 118.633,189.323 116.556 C 189.459 114.478,189.655 111.478,189.759 109.889 C 189.894 107.835,189.876 106.844,189.697 106.461 C 189.394 105.814,188.889 105.594,188.889 106.109 C 188.889 106.618,187.959 109.297,187.012 111.518 C 186.578 112.536,186.222 113.513,186.222 113.691 C 186.222 113.868,185.936 114.585,185.586 115.284 C 185.236 115.983,184.824 116.943,184.671 117.416 C 184.517 117.890,184.086 118.840,183.713 119.527 C 183.339 120.215,182.750 121.353,182.404 122.055 C 181.862 123.157,179.381 127.007,176.784 130.778 C 174.385 134.263,166.598 142.163,164.333 143.411 C 163.967 143.613,163.067 144.223,162.333 144.767 C 161.600 145.310,160.258 146.171,159.351 146.681 C 158.444 147.191,157.501 147.796,157.254 148.026 C 157.007 148.256,156.732 148.444,156.643 148.444 C 156.554 148.444,155.223 149.044,153.685 149.778 C 152.147 150.511,150.752 151.111,150.585 151.111 C 150.267 151.111,148.520 151.756,146.991 152.438 C 146.497 152.658,145.497 152.960,144.768 153.110 C 144.040 153.259,143.344 153.455,143.222 153.545 C 143.100 153.635,142.500 153.834,141.889 153.987 C 141.278 154.140,140.528 154.344,140.222 154.440 C 139.917 154.537,138.967 154.732,138.111 154.875 C 137.256 155.017,136.156 155.227,135.667 155.341 C 132.250 156.138,122.700 156.566,118.778 156.098 C 117.311 155.923,115.311 155.722,114.333 155.651 C 113.356 155.580,111.610 155.279,110.454 154.983 C 109.299 154.687,108.120 154.444,107.834 154.444 C 107.548 154.444,106.379 154.094,105.237 153.667 C 104.095 153.239,103.088 152.889,102.999 152.889 C 102.606 152.889,96.176 149.525,95.197 148.808 C 94.600 148.370,93.783 147.852,93.381 147.658 C 92.980 147.464,91.966 146.737,91.128 146.042 C 90.290 145.346,89.179 144.432,88.659 144.008 C 88.139 143.585,87.553 142.975,87.357 142.653 C 87.161 142.331,86.325 141.341,85.500 140.454 C 84.675 139.567,84.000 138.742,84.000 138.620 C 84.000 138.417,82.924 136.936,82.304 136.285 C 82.162 136.136,81.670 135.336,81.210 134.507 C 80.750 133.678,80.080 132.567,79.720 132.038 C 79.360 131.509,78.833 130.509,78.550 129.816 C 78.266 129.123,77.796 128.106,77.507 127.556 C 77.217 127.006,76.852 126.106,76.695 125.556 C 75.998 123.113,75.458 121.522,75.292 121.419 C 75.192 121.357,75.111 121.007,75.111 120.641 C 75.111 119.892,74.728 118.063,74.464 117.556 C 74.369 117.372,74.172 116.372,74.028 115.333 C 73.883 114.294,73.662 112.744,73.537 111.889 C 73.211 109.666,72.829 101.005,72.993 99.556 C 73.068 98.883,73.181 97.233,73.244 95.889 C 73.306 94.544,73.443 93.144,73.548 92.778 C 73.755 92.051,73.987 90.204,74.135 88.111 C 74.186 87.378,74.391 86.128,74.590 85.333 C 74.789 84.539,75.029 83.239,75.123 82.444 C 75.389 80.210,76.143 75.812,76.514 74.333 C 76.699 73.600,76.966 72.100,77.109 71.000 C 77.252 69.900,77.556 68.250,77.786 67.333 C 78.174 65.781,78.691 62.451,79.114 58.778 C 79.213 57.922,79.401 56.472,79.533 55.556 C 80.045 52.000,79.804 43.071,79.128 40.556 C 77.932 36.107,79.264 33.829,84.119 32.017 C 84.848 31.745,86.044 31.241,86.778 30.898 C 87.511 30.554,88.461 30.170,88.889 30.044 C 90.964 29.433,92.821 28.848,93.222 28.677 C 93.976 28.357,98.049 27.169,99.222 26.927 C 99.833 26.801,101.483 26.423,102.889 26.088 C 108.156 24.830,111.583 24.351,117.778 24.005 C 130.568 23.290,129.930 23.396,128.669 22.191 C 127.951 21.505,128.013 21.511,124.778 21.786 M129.968 46.772 C 129.910 46.831,128.768 47.032,127.431 47.219 C 124.270 47.662,122.441 47.994,121.889 48.226 C 120.963 48.613,118.444 49.333,118.015 49.333 C 117.768 49.333,116.939 49.615,116.172 49.958 C 115.405 50.302,114.328 50.723,113.778 50.893 C 112.771 51.204,112.292 51.437,109.444 53.005 C 107.112 54.288,103.362 56.852,102.150 57.992 C 101.561 58.546,100.961 59.038,100.817 59.085 C 99.490 59.517,92.432 68.198,90.227 72.111 C 88.922 74.427,87.111 77.975,87.111 78.216 C 87.111 78.372,86.811 79.091,86.444 79.812 C 86.078 80.534,85.778 81.298,85.778 81.510 C 85.778 81.722,85.578 82.442,85.333 83.111 C 85.089 83.780,84.889 84.548,84.889 84.817 C 84.889 85.087,84.789 85.369,84.667 85.444 C 84.411 85.603,84.360 87.112,84.611 87.110 C 84.801 87.109,88.443 81.696,88.447 81.409 C 88.450 81.107,92.639 76.828,94.333 75.395 C 97.659 72.583,104.558 68.631,107.461 67.875 C 108.171 67.690,108.858 67.457,108.987 67.357 C 109.326 67.095,110.157 66.868,111.556 66.654 C 113.643 66.335,114.318 66.199,114.778 66.002 C 115.513 65.689,121.007 65.315,124.444 65.345 C 126.217 65.361,127.967 65.373,128.333 65.373 C 129.442 65.372,132.540 65.805,132.778 65.995 C 132.900 66.092,133.400 66.222,133.889 66.282 C 135.786 66.517,137.695 66.928,138.312 67.235 C 138.667 67.411,139.117 67.556,139.312 67.556 C 139.734 67.556,141.793 68.319,142.889 68.881 C 143.317 69.100,144.367 69.616,145.222 70.026 C 146.078 70.437,147.528 71.224,148.444 71.775 C 149.361 72.327,150.364 72.908,150.673 73.067 C 152.594 74.055,159.690 80.719,160.245 82.056 C 160.384 82.392,160.574 82.667,160.667 82.667 C 160.886 82.667,162.667 85.024,162.667 85.314 C 162.667 85.436,162.892 85.879,163.167 86.298 C 163.442 86.717,163.839 87.347,164.049 87.697 C 164.260 88.047,164.526 88.483,164.642 88.667 C 164.907 89.085,165.778 91.060,165.778 91.241 C 165.778 91.315,165.983 91.664,166.234 92.016 C 166.704 92.676,167.777 95.585,167.779 96.206 C 167.780 96.398,167.919 96.822,168.089 97.147 C 168.259 97.472,168.513 98.472,168.654 99.369 C 168.794 100.266,169.080 101.650,169.288 102.444 C 170.080 105.467,169.630 118.815,168.662 121.000 C 168.553 121.244,168.302 122.294,168.102 123.333 C 167.903 124.372,167.642 125.622,167.524 126.111 C 167.405 126.600,167.214 127.500,167.098 128.111 C 166.983 128.722,166.803 129.672,166.698 130.222 C 166.593 130.772,166.356 131.644,166.171 132.158 C 165.588 133.784,166.411 133.788,168.041 132.167 C 169.752 130.466,174.219 124.939,174.224 124.517 C 174.226 124.416,174.585 123.883,175.023 123.333 C 175.866 122.275,177.893 118.943,179.556 115.881 C 180.106 114.868,180.710 113.856,180.898 113.631 C 181.087 113.406,181.355 112.972,181.493 112.667 C 181.631 112.361,182.264 111.011,182.898 109.667 C 183.533 108.322,184.132 106.972,184.231 106.667 C 184.673 105.303,185.343 103.679,185.551 103.471 C 185.676 103.347,185.778 103.067,185.778 102.850 C 185.778 102.485,185.958 102.030,187.170 99.333 C 187.802 97.929,188.444 96.168,188.444 95.843 C 188.444 95.692,188.703 95.003,189.020 94.312 C 189.991 92.188,190.025 88.414,189.089 86.614 C 188.979 86.402,188.889 85.993,188.889 85.706 C 188.889 85.076,188.111 82.556,187.671 81.762 C 187.497 81.447,187.190 80.697,186.989 80.095 C 186.479 78.568,183.907 73.406,183.122 72.333 C 182.764 71.844,182.169 70.940,181.801 70.324 C 181.433 69.707,180.652 68.649,180.066 67.973 C 179.480 67.296,178.600 66.250,178.111 65.649 C 175.546 62.494,165.815 54.667,164.457 54.667 C 164.200 54.667,162.821 53.914,161.966 53.307 C 161.641 53.077,161.267 52.889,161.134 52.889 C 160.905 52.889,158.713 51.984,156.778 51.090 C 155.052 50.293,151.484 49.155,149.111 48.645 C 148.439 48.500,147.339 48.202,146.667 47.982 C 145.994 47.762,144.244 47.467,142.778 47.325 C 141.311 47.183,139.881 46.977,139.601 46.867 C 139.084 46.664,130.164 46.577,129.968 46.772 M252.976 66.092 C 252.910 66.265,252.892 66.690,252.936 67.037 C 253.001 67.551,253.036 67.493,253.125 66.722 C 253.237 65.751,253.188 65.541,252.976 66.092 M255.889 66.001 C 257.535 66.177,261.472 66.279,261.315 66.141 C 261.264 66.096,259.672 66.009,257.778 65.947 C 255.676 65.878,254.940 65.899,255.889 66.001 M219.444 66.461 C 218.244 66.559,218.548 66.591,220.778 66.602 C 223.578 66.615,224.054 66.536,222.000 66.400 C 221.450 66.363,220.300 66.391,219.444 66.461 M224.278 66.481 C 224.861 66.693,224.981 66.924,225.185 68.222 C 225.237 68.550,225.285 68.395,225.303 67.846 C 225.335 66.878,224.787 66.199,224.006 66.240 C 223.819 66.249,223.942 66.358,224.278 66.481 M213.567 67.099 C 213.359 67.231,213.594 67.258,214.234 67.176 C 214.777 67.107,215.264 67.014,215.315 66.969 C 215.523 66.788,213.864 66.911,213.567 67.099 M264.075 69.333 C 264.075 70.250,264.114 70.625,264.162 70.167 C 264.210 69.708,264.210 68.958,264.162 68.500 C 264.114 68.042,264.075 68.417,264.075 69.333 M306.933 68.489 C 306.785 68.637,306.683 69.253,306.703 69.878 L 306.739 71.000 306.870 69.778 L 307.000 68.556 308.778 68.430 L 310.556 68.304 308.878 68.263 C 307.818 68.237,307.102 68.320,306.933 68.489 M314.500 68.386 C 315.081 68.431,316.031 68.431,316.611 68.386 C 317.192 68.340,316.717 68.302,315.556 68.302 C 314.394 68.302,313.919 68.340,314.500 68.386 M321.611 68.386 C 322.192 68.431,323.142 68.431,323.722 68.386 C 324.303 68.340,323.828 68.302,322.667 68.302 C 321.506 68.302,321.031 68.340,321.611 68.386 M328.722 68.386 C 329.303 68.431,330.253 68.431,330.833 68.386 C 331.414 68.340,330.939 68.302,329.778 68.302 C 328.617 68.302,328.142 68.340,328.722 68.386 M335.833 68.386 C 336.414 68.431,337.364 68.431,337.944 68.386 C 338.525 68.340,338.050 68.302,336.889 68.302 C 335.728 68.302,335.253 68.340,335.833 68.386 M342.944 68.386 C 343.525 68.431,344.475 68.431,345.056 68.386 C 345.636 68.340,345.161 68.302,344.000 68.302 C 342.839 68.302,342.364 68.340,342.944 68.386 M350.056 68.386 C 350.636 68.431,351.586 68.431,352.167 68.386 C 352.747 68.340,352.272 68.302,351.111 68.302 C 349.950 68.302,349.475 68.340,350.056 68.386 M357.167 68.386 C 357.747 68.431,358.697 68.431,359.278 68.386 C 359.858 68.340,359.383 68.302,358.222 68.302 C 357.061 68.302,356.586 68.340,357.167 68.386 M364.278 68.386 C 364.858 68.431,365.808 68.431,366.389 68.386 C 366.969 68.340,366.494 68.302,365.333 68.302 C 364.172 68.302,363.697 68.340,364.278 68.386 M370.820 68.693 C 370.965 68.869,371.125 69.560,371.174 70.229 C 371.257 71.358,371.262 71.343,371.243 70.018 C 371.228 68.959,371.136 68.563,370.889 68.481 C 370.622 68.394,370.608 68.436,370.820 68.693 M225.382 69.222 C 225.384 69.467,225.462 69.967,225.556 70.333 C 225.708 70.932,225.726 70.943,225.729 70.444 C 225.732 70.139,225.653 69.639,225.556 69.333 C 225.416 68.898,225.379 68.874,225.382 69.222 M225.778 71.393 C 225.778 71.589,225.866 71.982,225.975 72.266 C 226.083 72.551,226.229 73.370,226.299 74.087 C 226.436 75.474,226.672 76.064,226.658 74.981 C 226.648 74.141,226.112 71.371,225.923 71.182 C 225.843 71.102,225.778 71.197,225.778 71.393 M252.967 72.889 C 252.967 73.928,253.005 74.353,253.052 73.833 C 253.098 73.314,253.098 72.464,253.052 71.944 C 253.005 71.425,252.967 71.850,252.967 72.889 M116.222 72.027 C 111.490 72.920,111.500 72.918,111.000 73.241 C 110.756 73.400,109.819 73.794,108.918 74.118 C 102.030 76.594,93.710 83.348,90.778 88.844 C 90.533 89.302,90.022 90.125,89.642 90.672 C 89.261 91.219,88.872 91.917,88.777 92.222 C 88.682 92.528,88.161 93.728,87.618 94.889 C 87.076 96.050,86.497 97.500,86.330 98.111 C 86.164 98.722,85.913 99.572,85.773 100.000 C 85.117 102.007,85.058 102.334,84.465 107.333 C 84.160 109.900,84.404 115.819,84.890 117.667 C 85.115 118.522,85.415 119.866,85.556 120.653 C 85.697 121.439,86.055 122.561,86.351 123.145 C 86.647 123.729,86.889 124.366,86.889 124.560 C 86.889 125.082,87.693 126.762,88.918 128.801 C 89.513 129.792,90.000 130.664,90.000 130.738 C 90.000 132.378,98.899 141.199,102.889 143.514 C 103.439 143.833,103.989 144.214,104.111 144.359 C 104.712 145.076,109.707 147.160,112.667 147.929 C 113.828 148.231,114.873 148.570,114.989 148.683 C 115.105 148.796,115.606 148.889,116.101 148.889 C 116.597 148.889,117.352 148.993,117.779 149.120 C 120.325 149.877,129.376 149.286,133.111 148.118 C 134.394 147.717,135.790 147.314,136.213 147.222 C 142.502 145.858,153.336 136.777,157.423 129.444 C 159.098 126.439,159.778 125.054,159.778 124.647 C 159.778 124.268,160.201 123.134,160.715 122.136 C 160.833 121.906,160.968 121.406,161.013 121.025 C 161.058 120.645,161.204 119.883,161.337 119.333 C 162.051 116.382,162.199 114.997,162.211 111.178 C 162.217 108.953,162.125 106.653,162.007 106.066 C 161.888 105.480,161.744 104.400,161.687 103.667 C 161.629 102.933,161.416 101.733,161.212 101.000 C 161.008 100.267,160.760 99.333,160.662 98.926 C 160.397 97.829,159.927 96.638,158.674 93.889 C 158.339 93.156,157.938 92.228,157.782 91.828 C 157.625 91.428,157.379 91.028,157.233 90.939 C 157.088 90.850,156.634 90.178,156.225 89.444 C 155.596 88.319,154.430 86.625,154.006 86.222 C 153.941 86.161,153.514 85.644,153.055 85.074 C 151.539 83.186,148.450 80.307,146.658 79.111 C 146.200 78.806,145.490 78.290,145.079 77.966 C 144.183 77.258,139.232 74.756,136.769 73.766 C 134.829 72.986,134.008 72.736,132.333 72.419 C 131.722 72.303,130.772 72.121,130.222 72.015 C 127.357 71.463,126.495 71.385,123.222 71.381 C 120.215 71.378,119.136 71.478,116.222 72.027 M371.191 76.444 C 371.191 77.606,371.229 78.081,371.274 77.500 C 371.320 76.919,371.320 75.969,371.274 75.389 C 371.229 74.808,371.191 75.283,371.191 76.444 M250.929 75.114 C 249.911 75.202,246.481 75.257,243.305 75.234 C 240.129 75.212,237.491 75.258,237.442 75.337 C 237.271 75.614,252.441 75.426,252.719 75.148 C 252.861 75.005,252.933 74.903,252.878 74.921 C 252.823 74.938,251.946 75.025,250.929 75.114 M264.228 75.206 C 264.352 75.330,269.047 75.425,275.773 75.440 C 288.351 75.468,287.498 75.340,287.612 77.222 L 287.694 78.556 287.736 77.083 C 287.794 75.050,288.480 75.177,277.667 75.220 C 272.411 75.241,267.191 75.200,266.065 75.128 C 264.791 75.047,264.098 75.076,264.228 75.206 M306.741 76.444 C 306.741 77.361,306.781 77.736,306.829 77.278 C 306.876 76.819,306.876 76.069,306.829 75.611 C 306.781 75.153,306.741 75.528,306.741 76.444 M215.155 75.444 C 215.155 75.689,215.235 76.139,215.333 76.444 C 215.474 76.884,215.511 76.907,215.511 76.556 C 215.511 76.311,215.431 75.861,215.333 75.556 C 215.192 75.116,215.155 75.093,215.155 75.444 M237.178 76.889 C 237.178 77.561,237.219 77.836,237.270 77.500 C 237.321 77.164,237.321 76.614,237.270 76.278 C 237.219 75.942,237.178 76.217,237.178 76.889 M226.711 76.444 C 226.711 76.750,226.791 77.250,226.889 77.556 L 227.067 78.111 227.067 77.556 C 227.067 77.250,226.987 76.750,226.889 76.444 L 226.711 75.889 226.711 76.444 M127.333 77.328 C 130.666 79.029,131.843 80.730,132.412 84.667 C 132.610 86.030,132.364 88.232,131.921 89.080 C 131.720 89.464,131.397 90.080,131.204 90.448 C 127.913 96.726,118.312 96.211,115.067 89.582 C 114.300 88.016,113.864 83.933,114.393 83.275 C 114.516 83.124,114.689 82.650,114.780 82.222 C 115.683 77.956,122.986 75.109,127.333 77.328 M227.184 78.537 C 227.266 78.751,227.333 79.067,227.333 79.240 C 227.333 79.414,227.419 79.556,227.525 79.556 C 227.782 79.556,227.563 78.476,227.269 78.294 C 227.122 78.203,227.091 78.293,227.184 78.537 M319.556 78.439 L 318.111 78.556 317.954 80.759 C 317.868 81.971,317.868 83.088,317.954 83.241 C 318.040 83.394,318.143 82.454,318.181 81.152 C 318.220 79.851,318.290 78.747,318.338 78.699 C 318.509 78.528,331.232 78.490,332.286 78.657 C 333.037 78.776,333.290 78.756,333.127 78.593 C 332.879 78.345,322.215 78.224,319.556 78.439 M345.538 78.481 C 345.977 78.644,358.847 78.560,359.014 78.394 C 359.071 78.336,355.973 78.299,352.129 78.311 C 348.285 78.323,345.319 78.400,345.538 78.481 M359.855 80.667 C 359.855 81.706,359.894 82.131,359.940 81.611 C 359.987 81.092,359.987 80.242,359.940 79.722 C 359.894 79.203,359.855 79.628,359.855 80.667 M209.822 79.721 C 210.885 79.761,212.685 79.762,213.822 79.721 C 214.959 79.681,214.089 79.648,211.889 79.647 C 209.689 79.647,208.759 79.680,209.822 79.721 M229.389 79.720 C 230.092 79.764,231.242 79.764,231.944 79.720 C 232.647 79.676,232.072 79.640,230.667 79.640 C 229.261 79.640,228.686 79.676,229.389 79.720 M233.758 85.611 C 233.823 89.937,233.892 91.159,234.001 89.889 C 234.084 88.911,234.127 86.261,234.095 84.000 C 234.027 79.228,234.046 79.556,233.833 79.555 C 233.742 79.555,233.708 82.280,233.758 85.611 M207.858 83.556 C 207.858 84.717,207.895 85.192,207.941 84.611 C 207.987 84.031,207.987 83.081,207.941 82.500 C 207.895 81.919,207.858 82.394,207.858 83.556 M287.636 83.556 C 287.636 84.717,287.673 85.192,287.719 84.611 C 287.765 84.031,287.765 83.081,287.719 82.500 C 287.673 81.919,287.636 82.394,287.636 83.556 M344.528 82.427 C 344.546 83.086,344.665 83.446,344.889 83.519 C 345.153 83.605,345.168 83.563,344.963 83.313 C 344.820 83.140,344.657 82.649,344.602 82.221 C 344.520 81.597,344.506 81.638,344.528 82.427 M371.191 83.556 C 371.191 84.717,371.229 85.192,371.274 84.611 C 371.320 84.031,371.320 83.081,371.274 82.500 C 371.229 81.919,371.191 82.394,371.191 83.556 M333.385 82.444 C 333.385 82.872,333.431 83.047,333.487 82.833 C 333.542 82.619,333.542 82.269,333.487 82.056 C 333.431 81.842,333.385 82.017,333.385 82.444 M237.186 83.556 C 237.186 84.472,237.225 84.847,237.273 84.389 C 237.321 83.931,237.321 83.181,237.273 82.722 C 237.225 82.264,237.186 82.639,237.186 83.556 M306.741 83.556 C 306.741 84.472,306.781 84.847,306.829 84.389 C 306.876 83.931,306.876 83.181,306.829 82.722 C 306.781 82.264,306.741 82.639,306.741 83.556 M322.070 83.722 C 324.125 83.759,327.425 83.759,329.403 83.722 C 331.381 83.685,329.700 83.655,325.667 83.655 C 321.633 83.655,320.015 83.685,322.070 83.722 M348.833 83.722 C 350.697 83.759,353.747 83.759,355.611 83.722 C 357.475 83.685,355.950 83.654,352.222 83.654 C 348.494 83.654,346.969 83.685,348.833 83.722 M287.333 86.185 C 287.333 86.341,286.912 86.460,286.278 86.483 L 285.222 86.522 286.197 86.609 C 287.122 86.691,287.813 86.406,287.485 86.078 C 287.402 85.994,287.333 86.043,287.333 86.185 M237.533 86.511 C 237.637 86.614,238.059 86.664,238.472 86.622 C 239.204 86.546,239.199 86.542,238.284 86.434 C 237.767 86.373,237.430 86.407,237.533 86.511 M243.500 86.607 C 244.019 86.654,244.869 86.654,245.389 86.607 C 245.908 86.560,245.483 86.522,244.444 86.522 C 243.406 86.522,242.981 86.560,243.500 86.607 M250.389 86.605 C 250.786 86.654,251.436 86.654,251.833 86.605 C 252.231 86.556,251.906 86.516,251.111 86.516 C 250.317 86.516,249.992 86.556,250.389 86.605 M265.167 86.606 C 265.625 86.654,266.375 86.654,266.833 86.606 C 267.292 86.558,266.917 86.519,266.000 86.519 C 265.083 86.519,264.708 86.558,265.167 86.606 M271.944 86.607 C 272.464 86.654,273.314 86.654,273.833 86.607 C 274.353 86.560,273.928 86.522,272.889 86.522 C 271.850 86.522,271.425 86.560,271.944 86.607 M279.056 86.607 C 279.575 86.654,280.425 86.654,280.944 86.607 C 281.464 86.560,281.039 86.522,280.000 86.522 C 278.961 86.522,278.536 86.560,279.056 86.607 M252.952 87.889 C 252.954 88.500,252.997 88.724,253.048 88.386 C 253.099 88.048,253.098 87.548,253.045 87.275 C 252.993 87.001,252.951 87.278,252.952 87.889 M371.191 90.667 C 371.191 91.828,371.229 92.303,371.274 91.722 C 371.320 91.142,371.320 90.192,371.274 89.611 C 371.229 89.031,371.191 89.506,371.191 90.667 M264.079 91.000 C 264.078 92.100,264.116 92.578,264.162 92.062 C 264.209 91.547,264.210 90.647,264.164 90.062 C 264.118 89.478,264.080 89.900,264.079 91.000 M306.741 90.667 C 306.741 91.583,306.781 91.958,306.829 91.500 C 306.876 91.042,306.876 90.292,306.829 89.833 C 306.781 89.375,306.741 89.750,306.741 90.667 M105.934 90.221 C 110.680 92.872,112.441 98.161,110.091 102.706 C 109.359 104.121,106.863 106.350,105.556 106.756 C 104.883 106.964,104.160 107.229,103.947 107.345 C 103.448 107.617,101.007 107.617,100.127 107.344 C 99.752 107.228,98.970 107.015,98.391 106.871 C 96.249 106.340,93.759 103.425,93.192 100.785 C 92.849 99.186,92.798 96.083,93.111 95.889 C 93.233 95.813,93.335 95.532,93.336 95.265 C 93.342 94.176,95.188 91.875,97.196 90.452 C 99.127 89.085,103.684 88.964,105.934 90.221 M148.820 90.062 C 149.965 90.656,150.239 90.877,152.281 92.855 C 156.616 97.052,154.118 105.013,147.803 107.127 C 146.472 107.573,143.613 107.706,142.941 107.353 C 142.729 107.242,142.082 106.984,141.504 106.780 C 139.312 106.009,136.774 103.292,136.023 100.912 C 135.531 99.353,135.382 96.578,135.778 96.333 C 135.900 96.258,136.003 95.977,136.007 95.709 C 136.026 94.394,139.070 91.051,141.222 89.983 C 143.086 89.057,146.962 89.098,148.820 90.062 M208.947 91.271 C 209.285 91.322,209.785 91.320,210.059 91.268 C 210.332 91.215,210.056 91.173,209.444 91.175 C 208.833 91.176,208.610 91.219,208.947 91.271 M215.167 91.273 C 215.625 91.321,216.375 91.321,216.833 91.273 C 217.292 91.225,216.917 91.186,216.000 91.186 C 215.083 91.186,214.708 91.225,215.167 91.273 M232.278 94.666 C 231.515 96.199,230.537 97.990,230.105 98.645 C 229.673 99.301,229.362 99.881,229.414 99.933 C 229.492 100.010,231.215 97.222,232.008 95.737 C 233.036 93.810,233.799 92.184,233.739 92.047 C 233.699 91.955,233.042 93.133,232.278 94.666 M220.381 93.885 C 219.683 94.909,219.111 95.823,219.111 95.915 C 219.111 96.008,219.714 95.200,220.450 94.121 C 221.186 93.042,221.758 92.128,221.720 92.091 C 221.683 92.053,221.080 92.860,220.381 93.885 M243.500 93.052 C 244.019 93.098,244.869 93.098,245.389 93.052 C 245.908 93.005,245.483 92.967,244.444 92.967 C 243.406 92.967,242.981 93.005,243.500 93.052 M250.393 93.050 C 250.792 93.099,251.392 93.098,251.726 93.048 C 252.060 92.997,251.733 92.957,251.000 92.958 C 250.267 92.959,249.993 93.000,250.393 93.050 M265.273 93.049 C 265.667 93.098,266.367 93.099,266.828 93.051 C 267.289 93.003,266.967 92.963,266.111 92.962 C 265.256 92.961,264.878 93.000,265.273 93.049 M271.944 93.052 C 272.464 93.098,273.314 93.098,273.833 93.052 C 274.353 93.005,273.928 92.967,272.889 92.967 C 271.850 92.967,271.425 93.005,271.944 93.052 M279.056 93.052 C 279.575 93.098,280.425 93.098,280.944 93.052 C 281.464 93.005,281.039 92.967,280.000 92.967 C 278.961 92.967,278.536 93.005,279.056 93.052 M283.281 97.965 C 283.316 100.973,283.252 103.134,283.122 103.333 C 282.937 103.618,281.533 103.683,273.508 103.778 L 264.111 103.889 264.095 105.111 L 264.078 106.333 264.161 105.167 L 264.244 104.000 273.456 104.000 C 282.370 104.000,282.681 103.986,283.111 103.556 C 283.571 103.096,283.829 93.307,283.389 93.034 C 283.297 92.977,283.249 95.196,283.281 97.965 M321.722 93.274 C 322.242 93.321,323.092 93.321,323.611 93.274 C 324.131 93.227,323.706 93.189,322.667 93.189 C 321.628 93.189,321.203 93.227,321.722 93.274 M328.833 93.274 C 329.353 93.321,330.203 93.321,330.722 93.274 C 331.242 93.227,330.817 93.189,329.778 93.189 C 328.739 93.189,328.314 93.227,328.833 93.274 M350.167 93.274 C 350.686 93.321,351.536 93.321,352.056 93.274 C 352.575 93.227,352.150 93.189,351.111 93.189 C 350.072 93.189,349.647 93.227,350.167 93.274 M357.051 93.271 C 357.445 93.321,358.145 93.321,358.606 93.273 C 359.067 93.225,358.744 93.185,357.889 93.184 C 357.033 93.183,356.656 93.222,357.051 93.271 M318.121 93.611 C 317.813 94.590,317.777 97.500,318.070 97.744 C 318.303 97.937,320.348 97.990,325.804 97.944 L 333.222 97.883 325.715 97.830 C 319.758 97.789,318.185 97.718,318.096 97.486 C 318.035 97.325,318.068 96.325,318.170 95.264 C 318.343 93.458,318.328 92.953,318.121 93.611 M359.852 95.333 C 359.852 96.250,359.892 96.625,359.940 96.167 C 359.988 95.708,359.988 94.958,359.940 94.500 C 359.892 94.042,359.852 94.417,359.852 95.333 M239.667 98.555 C 239.667 101.041,239.717 103.124,239.778 103.185 C 239.839 103.246,239.889 101.263,239.889 98.778 C 239.889 96.293,239.839 94.209,239.778 94.148 C 239.717 94.087,239.667 96.070,239.667 98.555 M344.462 96.598 C 344.452 97.110,344.524 97.578,344.620 97.638 C 344.717 97.698,344.760 97.379,344.715 96.929 C 344.594 95.699,344.482 95.553,344.462 96.598 M371.191 97.778 C 371.191 98.939,371.229 99.414,371.274 98.833 C 371.320 98.253,371.320 97.303,371.274 96.722 C 371.229 96.142,371.191 96.617,371.191 97.778 M333.389 96.778 C 333.392 97.267,333.437 97.441,333.491 97.164 C 333.544 96.888,333.542 96.488,333.486 96.275 C 333.430 96.063,333.387 96.289,333.389 96.778 M306.741 97.778 C 306.741 98.694,306.781 99.069,306.829 98.611 C 306.876 98.153,306.876 97.403,306.829 96.944 C 306.781 96.486,306.741 96.861,306.741 97.778 M359.480 97.432 C 359.367 97.725,358.370 97.780,352.175 97.833 L 345.000 97.895 352.139 97.948 C 359.227 98.000,360.403 97.885,359.726 97.207 C 359.662 97.144,359.552 97.245,359.480 97.432 M126.778 99.858 C 130.126 101.094,131.775 102.481,133.156 105.222 C 133.533 105.970,134.222 109.870,134.222 111.254 C 134.222 113.299,132.501 116.829,130.768 118.340 C 130.071 118.947,129.388 119.548,129.250 119.675 C 126.897 121.842,120.849 122.053,117.921 120.071 C 115.673 118.549,114.597 117.191,113.100 113.987 C 111.906 111.430,112.733 105.852,114.659 103.485 C 115.623 102.300,117.182 100.917,117.827 100.674 C 118.228 100.523,118.756 100.321,119.000 100.225 C 119.430 100.056,120.754 99.677,121.667 99.462 C 122.498 99.266,125.885 99.528,126.778 99.858 M228.605 101.201 C 228.468 101.536,228.653 101.816,229.482 102.535 C 230.060 103.035,231.338 104.192,232.322 105.106 L 234.111 106.767 232.667 105.261 C 231.872 104.432,230.703 103.352,230.069 102.860 C 229.273 102.244,228.894 101.782,228.846 101.372 C 228.787 100.855,228.755 100.833,228.605 101.201 M371.191 104.889 C 371.191 106.050,371.229 106.525,371.274 105.944 C 371.320 105.364,371.320 104.414,371.274 103.833 C 371.229 103.253,371.191 103.728,371.191 104.889 M306.741 104.889 C 306.741 105.806,306.781 106.181,306.829 105.722 C 306.876 105.264,306.876 104.514,306.829 104.056 C 306.781 103.597,306.741 103.972,306.741 104.889 M243.624 103.944 C 245.312 103.982,248.012 103.982,249.624 103.944 C 251.237 103.906,249.856 103.875,246.556 103.875 C 243.256 103.875,241.937 103.906,243.624 103.944 M235.884 108.413 C 236.859 109.408,237.699 110.222,237.752 110.222 C 237.910 110.222,235.037 107.248,234.556 106.913 C 234.311 106.742,234.909 107.417,235.884 108.413 M252.964 108.222 C 252.964 109.139,253.003 109.514,253.051 109.056 C 253.099 108.597,253.099 107.847,253.051 107.389 C 253.003 106.931,252.964 107.306,252.964 108.222 M311.167 108.162 C 311.625 108.210,312.375 108.210,312.833 108.162 C 313.292 108.114,312.917 108.075,312.000 108.075 C 311.083 108.075,310.708 108.114,311.167 108.162 M318.278 108.162 C 318.736 108.210,319.486 108.210,319.944 108.162 C 320.403 108.114,320.028 108.075,319.111 108.075 C 318.194 108.075,317.819 108.114,318.278 108.162 M325.389 108.162 C 325.847 108.210,326.597 108.210,327.056 108.162 C 327.514 108.114,327.139 108.075,326.222 108.075 C 325.306 108.075,324.931 108.114,325.389 108.162 M331.778 108.087 C 331.778 108.135,332.128 108.214,332.556 108.264 C 332.983 108.314,333.333 108.275,333.333 108.178 C 333.333 108.080,332.983 108.000,332.556 108.000 C 332.128 108.000,331.778 108.039,331.778 108.087 M346.722 108.162 C 347.181 108.210,347.931 108.210,348.389 108.162 C 348.847 108.114,348.472 108.075,347.556 108.075 C 346.639 108.075,346.264 108.114,346.722 108.162 M353.833 108.162 C 354.292 108.210,355.042 108.210,355.500 108.162 C 355.958 108.114,355.583 108.075,354.667 108.075 C 353.750 108.075,353.375 108.114,353.833 108.162 M360.944 108.162 C 361.403 108.210,362.153 108.210,362.611 108.162 C 363.069 108.114,362.694 108.075,361.778 108.075 C 360.861 108.075,360.486 108.114,360.944 108.162 M368.056 108.162 C 368.514 108.210,369.264 108.210,369.722 108.162 C 370.181 108.114,369.806 108.075,368.889 108.075 C 367.972 108.075,367.597 108.114,368.056 108.162 M208.542 109.167 L 207.889 109.889 208.611 109.236 C 209.008 108.877,209.333 108.552,209.333 108.514 C 209.333 108.342,209.150 108.493,208.542 109.167 M344.484 111.159 C 344.426 113.014,343.305 112.899,360.822 112.833 L 376.333 112.775 360.749 112.721 C 343.409 112.661,344.749 112.804,344.610 110.994 L 344.525 109.889 344.484 111.159 M241.736 110.389 C 243.730 110.425,246.930 110.425,248.847 110.388 C 250.765 110.351,249.133 110.321,245.222 110.321 C 241.311 110.321,239.742 110.352,241.736 110.389 M275.496 110.389 L 286.659 110.449 286.801 111.014 C 286.879 111.325,286.884 112.099,286.813 112.734 C 286.727 113.497,286.750 113.738,286.881 113.444 C 287.176 112.785,287.151 110.796,286.844 110.489 C 286.643 110.287,283.870 110.235,275.456 110.276 L 264.333 110.329 275.496 110.389 M333.325 111.333 L 333.222 112.556 317.361 112.607 C 301.046 112.660,300.870 112.670,300.903 113.527 C 300.913 113.772,300.982 113.727,301.118 113.389 L 301.319 112.889 317.188 112.889 C 334.973 112.889,333.637 113.029,333.504 111.184 L 333.427 110.111 333.325 111.333 M235.610 112.611 C 235.107 113.192,234.413 114.022,234.070 114.457 C 231.109 118.198,230.315 118.705,229.471 117.389 C 228.734 116.241,227.203 114.806,226.909 114.988 C 226.737 115.094,226.682 119.940,226.721 131.735 L 226.775 148.333 226.832 132.000 C 226.863 123.017,226.942 115.525,227.007 115.352 C 227.153 114.965,228.447 116.138,229.243 117.379 C 230.411 119.201,230.412 119.200,233.877 114.999 C 235.295 113.280,236.715 111.778,236.922 111.778 C 237.012 111.778,237.124 112.203,237.171 112.722 L 237.256 113.667 237.295 112.611 C 237.327 111.725,237.269 111.556,236.930 111.556 C 236.708 111.556,236.114 112.031,235.610 112.611 M204.659 113.500 L 203.444 114.778 204.722 113.563 C 205.425 112.895,206.000 112.320,206.000 112.285 C 206.000 112.120,205.788 112.313,204.659 113.500 M376.556 118.000 C 376.556 120.811,376.631 123.111,376.722 123.111 C 376.814 123.111,376.889 120.811,376.889 118.000 C 376.889 115.189,376.814 112.889,376.722 112.889 C 376.631 112.889,376.556 115.189,376.556 118.000 M147.363 113.932 C 153.090 115.740,155.445 121.853,152.589 127.490 C 149.534 133.519,139.362 133.168,136.520 126.937 C 136.201 126.238,135.853 125.493,135.748 125.281 C 135.338 124.457,135.525 120.815,136.031 119.764 C 138.340 114.974,143.025 112.562,147.363 113.932 M104.973 114.449 C 106.827 115.411,108.171 116.379,108.609 117.069 C 108.819 117.398,109.063 117.720,109.152 117.785 C 109.761 118.229,110.931 121.548,110.952 122.889 C 111.032 128.065,107.430 131.551,101.640 131.902 C 100.314 131.982,99.547 131.943,99.452 131.791 C 99.372 131.661,99.148 131.556,98.954 131.556 C 94.826 131.556,91.703 126.312,92.682 121.021 C 93.617 115.960,100.643 112.203,104.973 114.449 M286.522 115.778 C 286.522 116.817,286.560 117.242,286.607 116.722 C 286.654 116.203,286.654 115.353,286.607 114.833 C 286.560 114.314,286.522 114.739,286.522 115.778 M203.778 116.292 C 203.778 116.330,204.103 116.655,204.500 117.014 L 205.222 117.667 204.570 116.944 C 203.961 116.271,203.778 116.120,203.778 116.292 M300.967 119.111 C 300.967 120.150,301.005 120.575,301.052 120.056 C 301.098 119.536,301.098 118.686,301.052 118.167 C 301.005 117.647,300.967 118.072,300.967 119.111 M237.186 119.111 C 237.186 120.028,237.225 120.403,237.273 119.944 C 237.321 119.486,237.321 118.736,237.273 118.278 C 237.225 117.819,237.186 118.194,237.186 119.111 M212.886 121.575 C 211.479 123.031,210.413 124.222,210.517 124.222 C 210.621 124.222,211.810 123.072,213.158 121.667 C 215.905 118.805,215.939 118.785,216.060 119.944 L 216.148 120.778 216.185 119.833 C 216.243 118.358,215.735 118.626,212.886 121.575 M286.351 120.795 C 286.265 121.850,286.242 122.760,286.299 122.817 C 286.355 122.874,286.474 122.059,286.561 121.006 C 286.649 119.953,286.673 119.043,286.614 118.984 C 286.555 118.925,286.436 119.740,286.351 120.795 M216.300 122.667 C 216.300 123.706,216.338 124.131,216.385 123.611 C 216.432 123.092,216.432 122.242,216.385 121.722 C 216.338 121.203,216.300 121.628,216.300 122.667 M240.056 121.495 C 240.514 121.543,241.264 121.543,241.722 121.495 C 242.181 121.447,241.806 121.408,240.889 121.408 C 239.972 121.408,239.597 121.447,240.056 121.495 M247.167 121.495 C 247.625 121.543,248.375 121.543,248.833 121.495 C 249.292 121.447,248.917 121.408,248.000 121.408 C 247.083 121.408,246.708 121.447,247.167 121.495 M268.500 121.495 C 268.958 121.543,269.708 121.543,270.167 121.495 C 270.625 121.447,270.250 121.408,269.333 121.408 C 268.417 121.408,268.042 121.447,268.500 121.495 M275.055 121.480 C 275.259 121.562,275.306 122.109,275.233 123.518 L 275.133 125.444 275.343 123.667 C 275.566 121.765,275.513 121.323,275.063 121.351 C 274.840 121.365,274.838 121.393,275.055 121.480 M252.960 123.111 C 252.960 123.906,253.000 124.231,253.050 123.833 C 253.099 123.436,253.099 122.786,253.050 122.389 C 253.000 121.992,252.960 122.317,252.960 123.111 M286.054 126.333 C 285.900 128.167,285.775 130.249,285.776 130.961 C 285.779 133.338,284.601 137.238,283.509 138.468 C 282.361 139.761,282.177 140.055,282.965 139.333 C 284.642 137.800,286.000 134.051,286.000 130.958 C 286.000 130.168,286.108 128.340,286.239 126.897 C 286.371 125.454,286.446 123.987,286.406 123.637 C 286.366 123.286,286.208 124.500,286.054 126.333 M325.287 123.261 C 325.522 123.356,325.522 123.444,325.287 123.744 C 325.031 124.072,325.041 124.079,325.389 123.806 C 325.603 123.638,325.778 123.413,325.778 123.306 C 325.778 123.199,325.603 123.119,325.389 123.129 C 325.142 123.140,325.105 123.188,325.287 123.261 M352.007 123.259 C 352.003 123.402,352.400 123.835,352.889 124.222 C 353.378 124.609,353.778 124.820,353.778 124.691 C 353.778 124.562,353.483 124.303,353.122 124.117 C 352.762 123.930,352.365 123.603,352.240 123.389 C 352.115 123.175,352.010 123.117,352.007 123.259 M216.075 126.222 C 216.075 127.139,216.114 127.514,216.162 127.056 C 216.210 126.597,216.210 125.847,216.162 125.389 C 216.114 124.931,216.075 125.306,216.075 126.222 M264.075 126.222 C 264.075 127.139,264.114 127.514,264.162 127.056 C 264.210 126.597,264.210 125.847,264.162 125.389 C 264.114 124.931,264.075 125.306,264.075 126.222 M354.667 125.525 C 355.094 125.902,355.759 126.362,356.143 126.549 C 356.528 126.735,357.376 127.247,358.029 127.686 C 359.406 128.613,360.919 129.377,361.073 129.224 C 361.131 129.165,360.834 128.973,360.412 128.796 C 359.990 128.620,358.949 128.019,358.100 127.460 C 357.250 126.902,356.481 126.445,356.389 126.445 C 356.298 126.445,355.698 126.084,355.056 125.642 C 353.999 124.916,353.962 124.905,354.667 125.525 M124.903 125.764 C 130.880 126.621,134.467 134.763,130.964 139.523 C 126.441 145.668,120.004 145.917,115.370 140.127 C 113.552 137.855,113.102 133.407,114.447 131.014 C 116.371 127.593,121.162 124.696,123.556 125.506 C 123.739 125.568,124.345 125.684,124.903 125.764 M322.010 125.917 C 320.965 126.659,320.873 126.788,321.683 126.376 C 322.058 126.185,322.496 125.873,322.655 125.681 C 323.033 125.225,322.932 125.262,322.010 125.917 M216.300 129.778 C 216.300 130.817,216.338 131.242,216.385 130.722 C 216.432 130.203,216.432 129.353,216.385 128.833 C 216.338 128.314,216.300 128.739,216.300 129.778 M252.967 129.778 C 252.967 130.817,253.005 131.242,253.052 130.722 C 253.098 130.203,253.098 129.353,253.052 128.833 C 253.005 128.314,252.967 128.739,252.967 129.778 M344.462 129.278 C 344.472 129.510,344.525 129.555,344.592 129.389 C 344.764 128.961,345.257 129.058,345.716 129.611 C 345.944 129.886,346.426 130.359,346.787 130.662 C 347.149 130.966,346.948 130.691,346.342 130.051 C 345.229 128.878,344.429 128.549,344.462 129.278 M331.742 130.392 C 331.172 130.849,330.103 131.722,329.367 132.333 C 328.631 132.944,327.797 133.624,327.514 133.843 C 327.015 134.230,327.020 134.230,327.667 133.857 C 328.446 133.406,330.082 132.141,330.921 131.339 C 331.943 130.363,332.876 129.743,333.108 129.887 C 333.232 129.964,333.333 129.920,333.333 129.791 C 333.333 129.351,332.780 129.560,331.742 130.392 M312.167 131.265 C 311.586 131.588,311.145 131.886,311.186 131.927 C 311.227 131.968,311.802 131.703,312.464 131.338 C 313.125 130.973,313.567 130.675,313.444 130.676 C 313.322 130.677,312.747 130.942,312.167 131.265 M268.333 131.468 L 267.222 131.772 268.222 131.639 C 268.772 131.565,269.822 131.430,270.556 131.338 L 271.889 131.172 270.667 131.168 C 269.994 131.166,268.944 131.301,268.333 131.468 M344.525 133.333 C 344.525 134.494,344.562 134.969,344.608 134.389 C 344.654 133.808,344.654 132.858,344.608 132.278 C 344.562 131.697,344.525 132.172,344.525 133.333 M333.411 133.333 C 333.411 134.372,333.449 134.797,333.496 134.278 C 333.543 133.758,333.543 132.908,333.496 132.389 C 333.449 131.869,333.411 132.294,333.411 133.333 M216.075 133.333 C 216.075 134.250,216.114 134.625,216.162 134.167 C 216.210 133.708,216.210 132.958,216.162 132.500 C 216.114 132.042,216.075 132.417,216.075 133.333 M264.075 133.333 C 264.075 134.250,264.114 134.625,264.162 134.167 C 264.210 133.708,264.210 132.958,264.162 132.500 C 264.114 132.042,264.075 132.417,264.075 133.333 M349.333 132.723 C 349.333 132.768,349.633 133.027,350.000 133.298 C 350.367 133.569,350.667 133.710,350.667 133.610 C 350.667 133.511,350.367 133.252,350.000 133.035 C 349.633 132.819,349.333 132.678,349.333 132.723 M370.000 133.545 C 370.183 133.669,370.525 133.773,370.759 133.774 C 371.328 133.779,371.150 133.652,370.333 133.469 C 369.846 133.360,369.757 133.381,370.000 133.545 M351.093 134.081 C 351.389 134.445,352.222 134.996,352.222 134.827 C 352.222 134.785,351.897 134.512,351.500 134.222 C 351.053 133.894,350.898 133.841,351.093 134.081 M325.752 135.070 C 325.188 135.520,324.538 136.018,324.308 136.175 C 324.077 136.332,324.312 136.240,324.828 135.970 C 325.345 135.700,326.039 135.197,326.370 134.851 C 327.170 134.016,326.994 134.078,325.752 135.070 M267.587 134.667 C 267.587 134.850,267.673 135.200,267.778 135.444 C 267.898 135.725,267.969 135.766,267.969 135.556 C 267.969 135.372,267.883 135.022,267.778 134.778 C 267.657 134.498,267.587 134.457,267.587 134.667 M216.300 136.889 C 216.300 137.928,216.338 138.353,216.385 137.833 C 216.432 137.314,216.432 136.464,216.385 135.944 C 216.338 135.425,216.300 135.850,216.300 136.889 M252.967 136.889 C 252.967 137.928,253.005 138.353,253.052 137.833 C 253.098 137.314,253.098 136.464,253.052 135.944 C 253.005 135.425,252.967 135.850,252.967 136.889 M374.685 135.191 C 374.736 135.235,375.078 135.338,375.444 135.420 C 375.931 135.529,376.021 135.508,375.778 135.343 C 375.478 135.140,374.462 134.999,374.685 135.191 M353.333 135.671 C 353.333 135.830,356.439 137.859,356.527 137.757 C 356.570 137.707,355.869 137.194,354.969 136.617 C 354.069 136.040,353.333 135.614,353.333 135.671 M376.667 135.816 C 376.972 135.942,377.407 136.142,377.633 136.260 C 377.859 136.379,378.087 136.431,378.141 136.378 C 378.273 136.246,376.786 135.552,376.411 135.571 C 376.246 135.579,376.361 135.689,376.667 135.816 M268.031 136.222 C 268.031 136.406,268.117 136.756,268.222 137.000 C 268.343 137.280,268.413 137.321,268.413 137.111 C 268.413 136.928,268.327 136.578,268.222 136.333 C 268.102 136.053,268.031 136.012,268.031 136.222 M297.281 137.278 C 296.907 137.702,297.071 138.490,297.596 138.788 C 297.831 138.922,297.835 138.896,297.611 138.655 C 297.170 138.179,297.282 137.426,297.833 137.160 C 298.180 136.993,298.225 136.914,297.979 136.904 C 297.784 136.896,297.470 137.064,297.281 137.278 M380.436 137.212 C 380.584 137.390,380.632 137.665,380.542 137.824 C 380.415 138.047,380.443 138.053,380.664 137.848 C 380.983 137.553,380.818 136.889,380.424 136.889 C 380.236 136.889,380.239 136.975,380.436 137.212 M268.459 137.778 C 268.463 138.104,269.306 139.805,269.324 139.524 C 269.329 139.446,269.136 138.946,268.894 138.413 C 268.652 137.880,268.456 137.594,268.459 137.778 M357.760 138.534 C 358.151 139.005,360.008 140.066,360.166 139.908 C 360.237 139.837,360.202 139.778,360.088 139.778 C 359.973 139.778,359.340 139.423,358.681 138.989 C 358.022 138.555,357.607 138.350,357.760 138.534 M380.134 138.603 C 380.047 138.873,379.589 139.798,379.116 140.658 C 378.643 141.518,378.330 142.222,378.420 142.222 C 378.670 142.222,380.480 138.662,380.380 138.368 C 380.331 138.227,380.221 138.332,380.134 138.603 M344.525 140.444 C 344.525 141.606,344.562 142.081,344.608 141.500 C 344.654 140.919,344.654 139.969,344.608 139.389 C 344.562 138.808,344.525 139.283,344.525 140.444 M333.411 140.444 C 333.411 141.483,333.449 141.908,333.496 141.389 C 333.543 140.869,333.543 140.019,333.496 139.500 C 333.449 138.981,333.411 139.406,333.411 140.444 M216.075 140.444 C 216.075 141.361,216.114 141.736,216.162 141.278 C 216.210 140.819,216.210 140.069,216.162 139.611 C 216.114 139.153,216.075 139.528,216.075 140.444 M264.075 140.444 C 264.075 141.361,264.114 141.736,264.162 141.278 C 264.210 140.819,264.210 140.069,264.162 139.611 C 264.114 139.153,264.075 139.528,264.075 140.444 M318.167 139.905 C 317.336 140.356,317.386 140.543,318.222 140.111 C 318.589 139.922,318.889 139.719,318.889 139.661 C 318.889 139.518,318.865 139.526,318.167 139.905 M281.650 140.250 C 281.565 140.387,280.884 140.782,280.137 141.128 C 279.389 141.474,278.906 141.762,279.063 141.768 C 279.477 141.782,281.422 140.762,281.763 140.351 C 281.923 140.158,281.998 140.000,281.929 140.000 C 281.860 140.000,281.735 140.112,281.650 140.250 M315.667 141.354 C 314.811 141.824,314.189 142.211,314.284 142.215 C 314.574 142.227,317.069 140.915,317.219 140.672 C 317.392 140.391,317.521 140.335,315.667 141.354 M269.804 141.902 C 269.750 142.847,270.255 143.179,271.346 142.916 L 272.333 142.677 271.415 142.782 C 270.454 142.891,270.138 142.700,269.939 141.889 C 269.832 141.455,269.829 141.455,269.804 141.902 M277.333 142.000 C 276.909 142.274,277.366 142.274,278.222 142.000 L 278.778 141.822 278.222 141.803 C 277.917 141.793,277.517 141.882,277.333 142.000 M216.300 144.000 C 216.300 145.039,216.338 145.464,216.385 144.944 C 216.432 144.425,216.432 143.575,216.385 143.056 C 216.338 142.536,216.300 142.961,216.300 144.000 M252.967 144.000 C 252.967 145.039,253.005 145.464,253.052 144.944 C 253.098 144.425,253.098 143.575,253.052 143.056 C 253.005 142.536,252.967 142.961,252.967 144.000 M274.444 142.444 C 273.854 142.569,273.801 142.612,274.222 142.625 C 274.528 142.634,275.178 142.558,275.667 142.457 C 276.408 142.304,276.445 142.274,275.889 142.277 C 275.522 142.279,274.872 142.354,274.444 142.444 M311.778 143.386 C 310.617 143.986,309.917 144.410,310.222 144.329 C 311.040 144.111,313.532 142.852,313.812 142.514 C 313.945 142.353,314.017 142.239,313.972 142.259 C 313.926 142.279,312.939 142.786,311.778 143.386 M376.831 144.964 C 376.372 145.839,376.155 146.356,376.349 146.111 C 376.779 145.570,377.835 143.539,377.737 143.442 C 377.698 143.403,377.291 144.088,376.831 144.964 M367.574 144.084 C 367.801 144.291,370.000 145.329,370.000 145.230 C 370.000 145.104,367.878 144.000,367.637 144.000 C 367.551 144.000,367.523 144.038,367.574 144.084 M306.667 145.791 C 306.239 146.017,305.967 146.206,306.063 146.212 C 306.335 146.228,307.778 145.592,307.778 145.456 C 307.778 145.266,307.511 145.347,306.667 145.791 M370.889 145.778 C 371.317 146.012,371.767 146.204,371.889 146.204 C 372.011 146.204,371.761 146.012,371.333 145.778 C 370.906 145.544,370.456 145.352,370.333 145.352 C 370.211 145.352,370.461 145.544,370.889 145.778 M344.438 147.222 L 344.333 149.000 339.000 149.000 L 333.667 149.000 333.540 147.333 L 333.413 145.667 333.373 147.148 C 333.309 149.519,332.829 149.333,339.031 149.333 C 345.223 149.333,344.723 149.534,344.615 147.090 L 344.543 145.444 344.438 147.222 M216.039 147.124 C 215.974 149.188,215.811 149.130,221.445 149.055 L 226.333 148.991 221.393 148.940 C 215.791 148.882,216.319 149.089,216.153 146.889 C 216.082 145.948,216.075 145.962,216.039 147.124 M264.067 147.111 C 264.067 147.783,264.108 148.058,264.159 147.722 C 264.210 147.386,264.210 146.836,264.159 146.500 C 264.108 146.164,264.067 146.439,264.067 147.111 M257.722 149.052 C 258.242 149.098,259.092 149.098,259.611 149.052 C 260.131 149.005,259.706 148.967,258.667 148.967 C 257.628 148.967,257.203 149.005,257.722 149.052 " stroke="none" fill="#bc7ccc" fill-rule="evenodd"></path></g></svg>
